<?xml version="1.0" encoding="UTF-8" standalone="no"?>
<!-- Created with Inkscape (http://www.inkscape.org/) -->

<svg
   version="1.1"
   id="svg2"
   xml:space="preserve"
   width="1000"
   height="666.66669"
   viewBox="0 0 1000 666.66669"
   xmlns="http://www.w3.org/2000/svg"
   xmlnsSvg="http://www.w3.org/2000/svg"><defs
     id="defs6"><clipPath
       clipPathUnits="userSpaceOnUse"
       id="clipPath20"><path
         d="M 0,500 H 750 V 0 H 0 Z"
         id="path18" /></clipPath><clipPath
       clipPathUnits="userSpaceOnUse"
       id="clipPath136"><path
         d="M 0,500 H 750 V 0 H 0 Z"
         id="path134" /></clipPath><clipPath
       clipPathUnits="userSpaceOnUse"
       id="clipPath276"><path
         d="M 0,500 H 750 V 0 H 0 Z"
         id="path274" /></clipPath></defs><g
     id="g8"
     transform="matrix(1.3333333,0,0,-1.3333333,0,666.66667)"><path
       d="M 0.001,0 H 750 V 499.807 H 10e-4 Z"
       style="fill:#fefefe;fill-opacity:1;fill-rule:nonzero;stroke:none"
       id="path10" /><path
       d="M 0.001,0 H 750 V 499.807 H 10e-4 Z"
       style="fill:transperent;fill-opacity:0;fill-rule:nonzero;stroke:none"
       id="path12" /><g
       id="g14"><g
         id="g16"
         clip-path="url(#clipPath20)"><g
           id="g22"
           transform="translate(203.7627,326.5146)"><path
             d="m 0,0 h -114.426 c -2.442,0 -4.422,1.98 -4.422,4.422 0,2.442 1.98,4.422 4.422,4.422 H 0 c 2.442,0 4.422,-1.98 4.422,-4.422 C 4.422,1.98 2.442,0 0,0"
             style="fill:#f4b0a7;fill-opacity:1;fill-rule:nonzero;stroke:none"
             id="path24" /></g><g
           id="g26"
           transform="translate(414.6143,444.7407)"><path
             d="m 0,0 h -74.548 c -2.5,0 -4.526,2.027 -4.526,4.526 0,2.5 2.026,4.527 4.526,4.527 H 0 C 2.5,9.053 4.526,7.026 4.526,4.526 4.526,2.027 2.5,0 0,0"
             style="fill:#ffd4cd;fill-opacity:1;fill-rule:nonzero;stroke:none"
             id="path28" /></g><g
           id="g30"
           transform="translate(140.291,268.1602)"><path
             d="m 0,0 h -13.155 c -3.456,0 -6.259,2.802 -6.259,6.259 v 12.348 c 0,3.456 2.803,6.259 6.259,6.259 H 0 c 3.457,0 6.258,-2.803 6.258,-6.259 V 6.259 C 6.258,2.802 3.457,0 0,0"
             style="fill:#407ffe;fill-opacity:1;fill-rule:nonzero;stroke:none"
             id="path32" /></g><g
           id="g34"
           transform="translate(522.9277,48.8975)"><path
             d="m 0,0 h -7.177 c -1.886,0 -3.415,1.528 -3.415,3.414 v 6.737 c 0,1.886 1.529,3.415 3.415,3.415 H 0 c 1.886,0 3.415,-1.529 3.415,-3.415 V 3.414 C 3.415,1.528 1.886,0 0,0"
             style="fill:#f4b0a7;fill-opacity:1;fill-rule:nonzero;stroke:none"
             id="path36" /></g><g
           id="g38"
           transform="translate(651.6455,336.5928)"><path
             d="m 0,0 h -7.178 c -1.885,0 -3.414,1.528 -3.414,3.415 v 6.736 c 0,1.886 1.529,3.415 3.414,3.415 H 0 c 1.886,0 3.414,-1.529 3.414,-3.415 V 3.415 C 3.414,1.528 1.886,0 0,0"
             style="fill:#407ffe;fill-opacity:1;fill-rule:nonzero;stroke:none"
             id="path40" /></g><g
           id="g42"
           transform="translate(149.8174,128.4307)"><path
             d="m 0,0 -36.239,-18.773 10.44,-5.057 -12.965,-15.499 10.117,-8.283 12.522,16.644 8.396,-9 z"
             style="fill:#fefef4;fill-opacity:1;fill-rule:nonzero;stroke:none"
             id="path44" /></g><g
           id="g46"
           transform="translate(276.0029,50.3262)"><path
             d="m 0,0 h -42.342 c -3.136,0 -5.678,2.542 -5.678,5.677 0,3.136 2.542,5.677 5.678,5.677 H 0 c 3.135,0 5.677,-2.541 5.677,-5.677 C 5.677,2.542 3.135,0 0,0"
             style="fill:#ffd4cd;fill-opacity:1;fill-rule:nonzero;stroke:none"
             id="path48" /></g><g
           id="g50"
           transform="translate(547.7461,90.5498)"><path
             d="m 0,0 h -341.007 c -3.95,0 -7.151,3.202 -7.151,7.151 v 284.025 c 0,3.949 3.201,7.151 7.151,7.151 H 0 c 3.949,0 7.151,-3.202 7.151,-7.151 V 7.151 C 7.151,3.202 3.949,0 0,0"
             style="fill:#fce7e4;fill-opacity:1;fill-rule:nonzero;stroke:none"
             id="path52" /></g><g
           id="g54"
           transform="translate(199.5879,352.9795)"><path
             d="M 0,0 H 355.31"
             style="fill:none;stroke:#fefef4;stroke-width:1.941;stroke-linecap:butt;stroke-linejoin:miter;stroke-miterlimit:10;stroke-dasharray:none;stroke-opacity:1"
             id="path56" /></g><g
           id="g58"
           transform="translate(547.7461,90.5498)"><path
             d="m 0,0 h -341.007 c -3.95,0 -7.151,3.202 -7.151,7.151 v 284.025 c 0,3.949 3.201,7.151 7.151,7.151 H 0 c 3.949,0 7.151,-3.202 7.151,-7.151 V 7.151 C 7.151,3.202 3.949,0 0,0 Z"
             style="fill:none;stroke:#fefef4;stroke-width:1.941;stroke-linecap:butt;stroke-linejoin:miter;stroke-miterlimit:10;stroke-dasharray:none;stroke-opacity:1"
             id="path60" /></g><g
           id="g62"
           transform="translate(234.6343,370.562)"><path
             d="m 0,0 c 0,-2.766 -2.243,-5.009 -5.009,-5.009 -2.766,0 -5.009,2.243 -5.009,5.009 0,2.767 2.243,5.009 5.009,5.009 C -2.243,5.009 0,2.767 0,0 Z"
             style="fill:none;stroke:#fefef4;stroke-width:1.941;stroke-linecap:butt;stroke-linejoin:miter;stroke-miterlimit:10;stroke-dasharray:none;stroke-opacity:1"
             id="path64" /></g><g
           id="g66"
           transform="translate(254.1016,370.562)"><path
             d="m 0,0 c 0,-2.766 -2.243,-5.009 -5.009,-5.009 -2.766,0 -5.009,2.243 -5.009,5.009 0,2.767 2.243,5.009 5.009,5.009 C -2.243,5.009 0,2.767 0,0 Z"
             style="fill:none;stroke:#fefef4;stroke-width:1.941;stroke-linecap:butt;stroke-linejoin:miter;stroke-miterlimit:10;stroke-dasharray:none;stroke-opacity:1"
             id="path68" /></g><g
           id="g70"
           transform="translate(273.5688,370.562)"><path
             d="m 0,0 c 0,-2.766 -2.243,-5.009 -5.009,-5.009 -2.766,0 -5.009,2.243 -5.009,5.009 0,2.767 2.243,5.009 5.009,5.009 C -2.243,5.009 0,2.767 0,0 Z"
             style="fill:none;stroke:#fefef4;stroke-width:1.941;stroke-linecap:butt;stroke-linejoin:miter;stroke-miterlimit:10;stroke-dasharray:none;stroke-opacity:1"
             id="path72" /></g><g
           id="g74"
           transform="translate(273.3525,144.3154)"><path
             d="m 0,0 h -180.553 c -5.718,0 -10.353,4.636 -10.353,10.354 v 66.932 c 0,5.719 4.635,10.355 10.353,10.355 H 0 c 5.718,0 10.354,-4.636 10.354,-10.355 V 10.354 C 10.354,4.636 5.718,0 0,0"
             style="fill:#ffd4cd;fill-opacity:1;fill-rule:nonzero;stroke:none"
             id="path76" /></g><g
           id="g78"
           transform="translate(106.854,215.6826)"><path
             d="m 0,0 c 0,-2.104 -1.706,-3.811 -3.811,-3.811 -2.105,0 -3.811,1.707 -3.811,3.811 0,2.105 1.706,3.812 3.811,3.812 C -1.706,3.812 0,2.105 0,0 Z"
             style="fill:none;stroke:#fefef4;stroke-width:1.477;stroke-linecap:butt;stroke-linejoin:miter;stroke-miterlimit:10;stroke-dasharray:none;stroke-opacity:1"
             id="path80" /></g><g
           id="g82"
           transform="translate(121.6646,215.6826)"><path
             d="m 0,0 c 0,-2.104 -1.706,-3.811 -3.811,-3.811 -2.105,0 -3.811,1.707 -3.811,3.811 0,2.105 1.706,3.812 3.811,3.812 C -1.706,3.812 0,2.105 0,0 Z"
             style="fill:none;stroke:#fefef4;stroke-width:1.477;stroke-linecap:butt;stroke-linejoin:miter;stroke-miterlimit:10;stroke-dasharray:none;stroke-opacity:1"
             id="path84" /></g><g
           id="g86"
           transform="translate(136.4751,215.6826)"><path
             d="m 0,0 c 0,-2.104 -1.706,-3.811 -3.811,-3.811 -2.105,0 -3.811,1.707 -3.811,3.811 0,2.105 1.706,3.812 3.811,3.812 C -1.706,3.812 0,2.105 0,0 Z"
             style="fill:none;stroke:#fefef4;stroke-width:1.477;stroke-linecap:butt;stroke-linejoin:miter;stroke-miterlimit:10;stroke-dasharray:none;stroke-opacity:1"
             id="path88" /></g><g
           id="g90"
           transform="translate(82.4463,201.2568)"><path
             d="M 0,0 H 201.26"
             style="fill:none;stroke:#fefef4;stroke-width:1.477;stroke-linecap:butt;stroke-linejoin:miter;stroke-miterlimit:10;stroke-dasharray:none;stroke-opacity:1"
             id="path92" /></g><g
           id="g94"
           transform="translate(597.8379,343.1987)"><path
             d="m 0,0 h -80.998 c -6.76,0 -12.239,5.48 -12.239,12.24 v 65.337 c 0,6.76 5.479,12.24 12.239,12.24 H 0 c 6.761,0 12.24,-5.48 12.24,-12.24 V 12.24 C 12.24,5.48 6.761,0 0,0"
             style="fill:#ffd4cd;fill-opacity:1;fill-rule:nonzero;stroke:none"
             id="path96" /></g><g
           id="g98"
           transform="translate(550.6826,410.2148)"><path
             d="m 0,0 c -7.773,0 -14.097,-6.324 -14.097,-14.097 0,-7.773 6.324,-14.097 14.097,-14.097 7.773,0 14.097,6.324 14.097,14.097 C 14.097,-6.324 7.773,0 0,0 m 0,-32.324 c -10.051,0 -18.227,8.177 -18.227,18.227 0,10.05 8.176,18.227 18.227,18.227 10.05,0 18.227,-8.177 18.227,-18.227 0,-10.05 -8.177,-18.227 -18.227,-18.227"
             style="fill:#fefef4;fill-opacity:1;fill-rule:nonzero;stroke:none"
             id="path100" /></g><g
           id="g102"
           transform="translate(566.0117,377.8291)"><path
             d="M 0,0 -5.382,5.381 -2.461,8.301 2.92,2.92 Z"
             style="fill:#fefef4;fill-opacity:1;fill-rule:nonzero;stroke:none"
             id="path104" /></g><g
           id="g106"
           transform="translate(571.6992,381.52)"><path
             d="m 0,0 10.649,-10.649 c 1.129,-1.13 1.129,-2.961 0,-4.09 L 8.28,-17.108 c -1.129,-1.129 -2.96,-1.129 -4.09,0 l -10.649,10.65 c -1.129,1.129 -1.129,2.959 0,4.089 L -4.09,0 C -2.96,1.129 -1.129,1.129 0,0"
             style="fill:#fefef4;fill-opacity:1;fill-rule:nonzero;stroke:none"
             id="path108" /></g><g
           id="g110"
           transform="translate(168.6714,371.3574)"><path
             d="m 0,0 h -46.552 c -7.804,0 -14.132,6.328 -14.132,14.132 v 39.477 c 0,7.805 6.328,14.133 14.132,14.133 H 0 c 7.805,0 14.132,-6.328 14.132,-14.133 V 14.132 C 14.132,6.328 7.805,0 0,0"
             style="fill:#407ffe;fill-opacity:1;fill-rule:nonzero;stroke:none"
             id="path112" /></g><g
           id="g114"
           transform="translate(145.3955,417.5698)"><path
             d="m 0,0 c -6.113,0 -11.086,-4.973 -11.086,-11.086 0,-6.113 4.973,-11.086 11.086,-11.086 6.113,0 11.086,4.973 11.086,11.086 C 11.086,-4.973 6.113,0 0,0 m 0,-26.935 c -8.739,0 -15.849,7.11 -15.849,15.849 0,8.739 7.11,15.849 15.849,15.849 8.739,0 15.849,-7.11 15.849,-15.849 0,-8.739 -7.11,-15.849 -15.849,-15.849"
             style="fill:#fefef4;fill-opacity:1;fill-rule:nonzero;stroke:none"
             id="path116" /></g><g
           id="g118"
           transform="translate(154.7378,417.5698)"><path
             d="M 0,0 -18.174,-22.172"
             style="fill:none;stroke:#fefef4;stroke-width:4.522;stroke-linecap:butt;stroke-linejoin:miter;stroke-miterlimit:10;stroke-dasharray:none;stroke-opacity:1"
             id="path120" /></g><g
           id="g122"
           transform="translate(666.5293,133.0391)"><path
             d="m 0,0 h -168.643 c -7.205,0 -13.045,5.841 -13.045,13.047 v 125.84 c 0,7.205 5.84,13.046 13.045,13.046 H 0 c 7.205,0 13.046,-5.841 13.046,-13.046 V 13.047 C 13.046,5.841 7.205,0 0,0"
             style="fill:#407ffe;fill-opacity:1;fill-rule:nonzero;stroke:none"
             id="path124" /></g></g></g><text
       transform="matrix(1,0,0,-1,509.0752,179.5557)"
       style="font-variant:normal;font-weight:900;font-stretch:normal;font-size:69.3587px;font-family:'Metropolis Black';-inkscape-font-specification:Metropolis-Black;writing-mode:lr-tb;fill:#fefef4;fill-opacity:1;fill-rule:nonzero;stroke:none"
       id="text128"><tspan
         x="0 46.123535 95.92308"
         y="0"
         id="tspan126">404</tspan></text><g
       id="g130"><g
         id="g132"
         clip-path="url(#clipPath136)"><g
           id="g138"
           transform="translate(508.6846,270.6279)"><path
             d="m 0,0 c 0,-2.039 -1.652,-3.691 -3.691,-3.691 -2.038,0 -3.692,1.652 -3.692,3.691 0,2.039 1.654,3.691 3.692,3.691 C -1.652,3.691 0,2.039 0,0 Z"
             style="fill:none;stroke:#fefef4;stroke-width:1.43;stroke-linecap:butt;stroke-linejoin:miter;stroke-miterlimit:10;stroke-dasharray:none;stroke-opacity:1"
             id="path140" /></g><g
           id="g142"
           transform="translate(523.0303,270.6279)"><path
             d="m 0,0 c 0,-2.039 -1.652,-3.691 -3.691,-3.691 -2.038,0 -3.691,1.652 -3.691,3.691 0,2.039 1.653,3.691 3.691,3.691 C -1.652,3.691 0,2.039 0,0 Z"
             style="fill:none;stroke:#fefef4;stroke-width:1.43;stroke-linecap:butt;stroke-linejoin:miter;stroke-miterlimit:10;stroke-dasharray:none;stroke-opacity:1"
             id="path144" /></g><g
           id="g146"
           transform="translate(537.376,270.6279)"><path
             d="m 0,0 c 0,-2.039 -1.652,-3.691 -3.691,-3.691 -2.038,0 -3.691,1.652 -3.691,3.691 0,2.039 1.653,3.691 3.691,3.691 C -1.652,3.691 0,2.039 0,0 Z"
             style="fill:none;stroke:#fefef4;stroke-width:1.43;stroke-linecap:butt;stroke-linejoin:miter;stroke-miterlimit:10;stroke-dasharray:none;stroke-opacity:1"
             id="path148" /></g><g
           id="g150"
           transform="translate(484.8408,255.2329)"><path
             d="M 0,0 H 194.734"
             style="fill:none;stroke:#fefef4;stroke-width:1.43;stroke-linecap:butt;stroke-linejoin:miter;stroke-miterlimit:10;stroke-dasharray:none;stroke-opacity:1"
             id="path152" /></g><g
           id="g154"
           transform="translate(395.8096,196.6289)"><path
             d="M 0,0 -0.743,10.033 -63.288,6.958 v -9.683 c 0,0 -14.068,-13.383 -19.619,-102.425 H 29.678 c 0,0 12.351,78.804 -29.678,105.15"
             style="fill:#407ffe;fill-opacity:1;fill-rule:nonzero;stroke:none"
             id="path156" /></g><g
           id="g158"
           transform="translate(332.5215,193.9043)"><path
             d="M 0,0 63.288,2.725"
             style="fill:none;stroke:#000000;stroke-width:1.552;stroke-linecap:butt;stroke-linejoin:miter;stroke-miterlimit:10;stroke-dasharray:none;stroke-opacity:1"
             id="path160" /></g><g
           id="g162"
           transform="translate(345.4526,152.8496)"><path
             d="m 0,0 12.964,-5.278 6.94,-56.093"
             style="fill:none;stroke:#000000;stroke-width:1.552;stroke-linecap:butt;stroke-linejoin:miter;stroke-miterlimit:10;stroke-dasharray:none;stroke-opacity:1"
             id="path164" /></g><g
           id="g166"
           transform="translate(264.144,216.0244)"><path
             d="M 0,0 17.278,57.04 55.286,42.792 37.05,-11.834 C 33.314,-23.117 20.42,-28.44 9.813,-23.078 1.357,-18.803 -2.788,-9.056 0,0"
             style="fill:#f26e5a;fill-opacity:1;fill-rule:nonzero;stroke:none"
             id="path168" /></g><g
           id="g170"
           transform="translate(290.7988,303.5264)"><path
             d="M 0,0 C 3.422,11.119 15.36,17.207 26.37,13.447 37.074,9.791 42.835,-1.807 39.279,-12.546 L 28.631,-44.709 -9.376,-30.462 Z"
             style="fill:#fefef4;fill-opacity:1;fill-rule:nonzero;stroke:none"
             id="path172" /></g><g
           id="g174"
           transform="translate(293.4888,220.3037)"><path
             d="m 0,0 -43.409,82.308 c 0,0 0.991,14.872 -23.714,15.76 l 0.006,-0.022 c -0.336,0.016 -0.671,0.046 -1.008,0.046 h -8.258 c -1.534,0 -2.93,-1.079 -3.141,-2.599 -0.244,-1.758 0.988,-3.272 2.642,-3.478 l 8.33,-1.178 -11.331,-3.024 -2.116,-0.781 -15.43,10.195 c -1.229,0.877 -2.948,0.473 -3.659,-0.859 -0.558,-1.045 -0.307,-2.338 0.603,-3.097 0.951,-0.793 2.485,-2.109 4.155,-3.552 l -3.406,2.039 c -1.296,0.776 -2.977,0.236 -3.579,-1.148 -0.473,-1.087 -0.12,-2.355 0.848,-3.039 0.832,-0.588 1.903,-1.342 3.041,-2.142 l -1.184,0.462 c -1.298,0.506 -2.835,0.14 -3.626,-1.005 -1.077,-1.559 -0.431,-3.676 1.279,-4.392 l 16.861,-7.057 c 2.911,-1.219 5.692,-1.979 9.116,-1.167 l 15.031,3.542 33.63,-94.136 z"
             style="fill:#f26e5a;fill-opacity:1;fill-rule:nonzero;stroke:none"
             id="path176" /></g><g
           id="g178"
           transform="translate(275.6729,254.0845)"><path
             d="M 0,0 8.033,-15.232"
             style="fill:none;stroke:#db5749;stroke-width:1.5;stroke-linecap:butt;stroke-linejoin:miter;stroke-miterlimit:10;stroke-dasharray:none;stroke-opacity:1"
             id="path180" /></g><g
           id="g182"
           transform="translate(324.5913,317.8809)"><path
             d="m 0,0 -16.136,-1.207 c 0,0 -23.365,-31.692 24.066,-113.087 l 62.546,3.075 4.713,87.696 -7.722,24.896 H 39.443 Z"
             style="fill:#fefef4;fill-opacity:1;fill-rule:nonzero;stroke:none"
             id="path184" /></g><g
           id="g186"
           transform="translate(306.2754,263.7476)"><path
             d="M 0,0 C 0,0 -4.654,9.79 -1.664,31.475"
             style="fill:none;stroke:#fce7e4;stroke-width:1.552;stroke-linecap:butt;stroke-linejoin:miter;stroke-miterlimit:10;stroke-dasharray:none;stroke-opacity:1"
             id="path188" /></g><g
           id="g190"
           transform="translate(451.4629,227.4756)"><path
             d="m 0,0 -25.976,53.642 -35.315,-20.009 26.543,-51.108 c 5.452,-10.561 19.019,-13.805 28.659,-6.852 C 1.596,-18.783 4.167,-8.509 0,0"
             style="fill:#f26e5a;fill-opacity:1;fill-rule:nonzero;stroke:none"
             id="path192" /></g><g
           id="g194"
           transform="translate(411.4687,309.7412)"><path
             d="M 0,0 C -5.117,10.448 -17.859,14.596 -28.146,9.163 -38.148,3.88 -42.027,-8.475 -36.838,-18.526 l 15.541,-30.106 35.316,20.008 z"
             style="fill:#fefef4;fill-opacity:1;fill-rule:nonzero;stroke:none"
             id="path196" /></g><g
           id="g198"
           transform="translate(390.1719,261.1089)"><path
             d="M 0,0 -12.832,24.857"
             style="fill:none;stroke:#fce7e4;stroke-width:1.552;stroke-linecap:butt;stroke-linejoin:miter;stroke-miterlimit:10;stroke-dasharray:none;stroke-opacity:1"
             id="path200" /></g><g
           id="g202"
           transform="translate(505.6826,319.2466)"><path
             d="m 0,0 c -0.791,1.146 -2.328,1.512 -3.626,1.005 l -7.545,-2.944 7.087,5.996 C -2.91,5.05 -2.58,6.804 -3.468,8.06 -4.485,9.499 -6.435,9.718 -7.731,8.674 l -6.594,-5.31 5.62,7.349 c 0.934,1.222 0.881,3.006 -0.255,4.043 -1.301,1.187 -3.253,0.985 -4.296,-0.313 l -11.098,-11.516 -11.331,3.025 8.331,1.177 c 1.653,0.206 2.885,1.721 2.641,3.478 -0.211,1.52 -1.606,2.6 -3.141,2.6 h -8.257 c -4.877,0 -9.639,-1.704 -13.248,-4.943 -0.062,-0.047 -0.117,-0.078 -0.179,-0.127 -5.067,-3.997 -3.224,-12.186 -3.224,-12.186 l -31.111,-88.078 30.833,-13.676 17.774,94.585 11.353,-0.021 c 0.703,-0.066 1.411,-0.062 2.115,-0.004 h 0.086 l -0.006,0.005 c 1.22,0.109 2.427,0.397 3.577,0.879 l 16.862,5.967 C 0.432,-3.675 1.076,-1.559 0,0"
             style="fill:#f26e5a;fill-opacity:1;fill-rule:nonzero;stroke:none"
             id="path204" /></g><g
           id="g206"
           transform="translate(433.8984,263.7476)"><path
             d="M 0,0 -6.719,-23.454"
             style="fill:none;stroke:#db5749;stroke-width:1.5;stroke-linecap:butt;stroke-linejoin:miter;stroke-miterlimit:10;stroke-dasharray:none;stroke-opacity:1"
             id="path208" /></g><g
           id="g210"
           transform="translate(323.3359,390.5376)"><path
             d="m 0,0 c -1.943,-1.333 -14.983,-4.723 -15.242,-7.088 0,0 4.29,-16.77 -0.104,-19.9 -11.879,-8.461 -15.681,-25.049 -15.681,-25.049 0,0 31.336,-23.465 114.64,1.173 0,0 0.997,9.979 -14.153,17.224 -4.325,2.068 -8.169,5.184 -10.599,9.416 -1.882,3.278 -2.168,4.67 -2.667,7.611 C 54.799,-8.389 32.104,22.024 0,0"
             style="fill:#000000;fill-opacity:1;fill-rule:nonzero;stroke:none"
             id="path212" /></g><g
           id="g214"
           transform="translate(324.5669,365.4028)"><path
             d="m 0,0 c 0.382,-5.504 -3.769,-10.276 -9.272,-10.659 -5.504,-0.383 -10.276,3.769 -10.659,9.272 -0.383,5.504 3.768,10.276 9.272,10.659 C -5.155,9.655 -0.383,5.503 0,0"
             style="fill:#db5749;fill-opacity:1;fill-rule:nonzero;stroke:none"
             id="path216" /></g><g
           id="g218"
           transform="translate(329.0811,340.9321)"><path
             d="m 0,0 1.381,-21.727 c 0.47,-7.63 3.589,-12.828 11.096,-12.306 6.408,0.446 14.032,5.58 14.384,11.994 l -3.819,34.086 z"
             style="fill:#f26e5a;fill-opacity:1;fill-rule:nonzero;stroke:none"
             id="path220" /></g><g
           id="g222"
           transform="translate(324.5913,317.8809)"><path
             d="m 0,0 39.443,1.373 c 0,0 -0.959,-19.393 -24.402,-17.577 C -1.255,-14.941 0,0 0,0"
             style="fill:#f26e5a;fill-opacity:1;fill-rule:nonzero;stroke:none"
             id="path224" /></g><g
           id="g226"
           transform="translate(330.2187,323.0352)"><path
             d="M 0,0 25.211,24.647 -1.324,20.122 Z"
             style="fill:#db5749;fill-opacity:1;fill-rule:nonzero;stroke:none"
             id="path228" /></g><g
           id="g230"
           transform="translate(335.6919,337.4214)"><path
             d="m 0,0 v 0 c -12.836,-0.038 -23.436,10.069 -23.819,20.551 l -0.756,24.735 c -0.481,13.137 9.545,24.287 22.659,25.199 13.425,0.934 27.419,-9.028 28.353,-22.453 l 0.391,-19.9 C 27.131,12.741 15.357,1.068 0,0"
             style="fill:#f26e5a;fill-opacity:1;fill-rule:nonzero;stroke:none"
             id="path232" /></g><g
           id="g234"
           transform="translate(325.335,366.6792)"><path
             d="M 0,0 -0.744,-6.142 2.43,-6.259"
             style="fill:none;stroke:#000000;stroke-width:1.238;stroke-linecap:round;stroke-linejoin:round;stroke-miterlimit:10;stroke-dasharray:none;stroke-opacity:1"
             id="path236" /></g><g
           id="g238"
           transform="translate(338.0146,381.6719)"><path
             d="m 0,0 c 0,0 -7.091,0.582 -7.163,-2.305 0,0 0.006,-1.954 6.193,-2.341 6.187,-0.388 7.796,0.065 8.361,1.901 C 7.956,-0.909 3.326,-0.018 0,0"
             style="fill:#000000;fill-opacity:1;fill-rule:nonzero;stroke:none"
             id="path240" /></g><g
           id="g242"
           transform="translate(317.4551,377.4556)"><path
             d="m 0,0 c 0,0 5.372,0.433 5.877,-2.163 0,0 0.301,-1.756 -4.404,-2.025 -4.704,-0.27 -6.161,0.314 -6.249,1.8 C -4.881,-0.618 -2.559,0.026 0,0"
             style="fill:#000000;fill-opacity:1;fill-rule:nonzero;stroke:none"
             id="path244" /></g><g
           id="g246"
           transform="translate(320.5737,369.0229)"><path
             d="m 0,0 c 0.041,-1.253 -0.941,-2.302 -2.195,-2.343 -1.253,-0.041 -2.302,0.942 -2.343,2.195 -0.041,1.253 0.942,2.302 2.195,2.343 C -1.09,2.235 -0.041,1.253 0,0"
             style="fill:#000000;fill-opacity:1;fill-rule:nonzero;stroke:none"
             id="path248" /></g><g
           id="g250"
           transform="translate(339.6304,369.6465)"><path
             d="m 0,0 c 0.041,-1.252 -0.941,-2.302 -2.194,-2.343 -1.253,-0.041 -2.302,0.942 -2.344,2.195 -0.041,1.252 0.942,2.302 2.195,2.343 C -1.09,2.236 -0.041,1.253 0,0"
             style="fill:#000000;fill-opacity:1;fill-rule:nonzero;stroke:none"
             id="path252" /></g><g
           id="g254"
           transform="translate(332.9937,356.1533)"><path
             d="M 0,0 C 0,0 -3.355,1.529 -7.406,-1.966"
             style="fill:none;stroke:#000000;stroke-width:1.238;stroke-linecap:round;stroke-linejoin:round;stroke-miterlimit:10;stroke-dasharray:none;stroke-opacity:1"
             id="path256" /></g><g
           id="g258"
           transform="translate(341.7207,412.1587)"><path
             d="m 0,0 c -3.201,0.17 -6.427,-0.181 -9.524,-1.006 -7.688,-2.047 -21.495,-7.741 -23.861,-22.507 -0.787,-3.892 -0.241,-5.196 -0.241,-5.196 0,0 25.784,-1.012 41.028,6.185 2.195,-9.289 4.222,-15.036 13.397,-24.081 l 8.146,12.244 9.17,-8.225 C 38.175,-42.898 38.163,-2.028 0,0"
             style="fill:#000000;fill-opacity:1;fill-rule:nonzero;stroke:none"
             id="path260" /></g><g
           id="g262"
           transform="translate(375.8975,365.3032)"><path
             d="m 0,0 c 0.383,-5.504 -3.769,-10.276 -9.272,-10.659 -5.504,-0.383 -10.276,3.768 -10.659,9.272 -0.383,5.504 3.768,10.276 9.272,10.658 C -5.155,9.655 -0.383,5.503 0,0"
             style="fill:#f26e5a;fill-opacity:1;fill-rule:nonzero;stroke:none"
             id="path264" /></g><g
           id="g266"
           transform="translate(362.1182,361.7549)"><path
             d="M 0,0 C 0,0 -0.502,7.225 6.485,6.568"
             style="fill:none;stroke:#000000;stroke-width:1.238;stroke-linecap:round;stroke-linejoin:round;stroke-miterlimit:10;stroke-dasharray:none;stroke-opacity:1"
             id="path268" /></g></g></g></g></svg>
